<?xml version="1.0" encoding="utf-8"?>
<!-- Generator: Adobe Illustrator 13.0.0, SVG Export Plug-In . SVG Version: 6.00 Build 14948)  -->
<!DOCTYPE svg PUBLIC "-//W3C//DTD SVG 1.1//EN" "http://www.w3.org/2000/svg">
<svg version="1.1" id="Layer_1" xmlns="http://www.w3.org/2000/svg" xmlns:xlink="http://www.w3.org/1999/xlink" x="0px" y="0px"
	 width="500px" height="500px" viewBox="0 0 500 500" enable-background="new 0 0 500 500" xml:space="preserve">
<g id="androd">
<path d="M44.4,41.1c-0.1,0.9-0.9,1.7-1.9,1.7c-2,0.1-5.3,0.3-6.6,0.3   c-1.4,0-4.7-0.2-6.7-0.3c-1-0.1-1.8-0.8-1.9-1.8c-0.3-2.4-0.8-7.2-0.8-13.3c0-0.6,0.3-1.2,0.8-1.6c3.5-2.8,18.6-14,34.8-14   c20,0,37.3,13.7,37.3,27.4v6c0,19.2-24.9,14.7-24.9,30.1v9c0,1-0.8,1.9-1.8,2c-2.5,0.2-6.7,0.5-8.7,0.5c-1.9,0-6.1-0.3-8.5-0.5   c-1-0.1-1.8-0.9-1.8-2v-9c0-19.7,24.9-15.1,24.9-30.1v-6c0-9.9-4.1-14.6-16.4-14.6c-8.7,0-14,3.7-15.8,5.1   c-0.4,0.3-0.6,0.8-0.7,1.3L44.4,41.1z M74.8,111.3c0,1-0.8,1.9-1.8,2c-2.5,0.2-6.8,0.5-8.8,0.5c-2,0-6.3-0.3-8.8-0.5   c-1-0.1-1.8-0.9-1.8-2V97.2c0-1,0.8-1.9,1.8-2c2.5-0.2,6.8-0.5,8.8-0.5c2,0,6.3,0.3,8.8,0.5c1,0.1,1.8,0.9,1.8,2V111.3z" >
</g>
</svg>
